<svg version="1.1" id="Layer_1" xmlns="http://www.w3.org/2000/svg" xmlns:xlink="http://www.w3.org/1999/xlink" x="0px" y="0px" width="45px" height="45px" viewBox="0 0 45 45" enable-background="new 0 0 45 45" xml:space="preserve">
<g>
	<path fill="#1578BE" d="M44.734776,0H0v45h44.734776V30.147987C44.912415,29.892025,45,29.559401,45,29.157511   c0-0.458757-0.087585-0.745626-0.265224-0.98427V0z"/>
	<path fill="#FFFFFF" d="M0.001355,22.783417h2.148972l0.484819-1.174706h1.083107l0.482354,1.174706h4.22762V21.88694   l0.378711,0.898968h2.192153l0.376245-0.908855v0.906364h10.504277l-0.004932-1.922804h0.203558   c0.14432,0.002472,0.185036,0.021019,0.185036,0.253492v1.669312h5.430407v-0.448853   c0.439154,0.236172,1.12258,0.448853,2.016962,0.448853h2.285894l0.489752-1.174706h1.08559l0.47987,1.174706h4.402794v-1.114101   l0.667389,1.114101h3.526913v-7.354911h-3.492374v0.870534l-0.487286-0.870534h-3.584888v0.870534l-0.447811-0.870534h-4.841965   c-0.809242,0-1.525988,0.112529-2.10084,0.427852v-0.427852H24.35796v0.427852   c-0.37009-0.32521-0.869705-0.427852-1.422363-0.427852H10.73016l-0.822834,1.899331l-0.836388-1.899331H5.226981v0.870534   l-0.426843-0.870534H1.522411L0.001355,18.92296V22.783417z M41.528728,21.744732h-1.781345l-2.383366-3.953194l0.002468,3.953194   h-2.560982l-0.488529-1.175951h-2.61651l-0.470007,1.175951h-1.471701c-0.614344,0-1.387823-0.136021-1.822063-0.581173   c-0.447792-0.451324-0.673563-1.053516-0.673563-2.015541c0-0.78274,0.139408-1.49497,0.678495-2.057596   c0.407097-0.422909,1.043653-0.617043,1.909649-0.617043h1.213875v1.128969h-1.187973   c-0.458899,0-0.721657,0.070473-0.972086,0.314077c-0.210955,0.222569-0.358984,0.642984-0.358984,1.195724   c0,0.566343,0.109798,0.968212,0.347878,1.236536c0.189987,0.207737,0.542797,0.270794,0.873413,0.270794h0.567455   l1.769018-4.146101h1.884972l2.126762,4.985708v-4.985708h1.91827l2.210655,3.671286v-3.671286h1.284199V21.744732z    M26.647562,21.744732h-1.282955v-5.272579h1.282955V21.744732z M24.635532,17.896633   c0,0.834665-0.560076,1.274876-0.88452,1.403481c0.275106,0.10634,0.508255,0.288095,0.618053,0.446379   c0.177637,0.255964,0.210955,0.49708,0.210955,0.960779v1.03746h-1.266937l-0.004932-0.664022   c0-0.311605,0.030834-0.770363-0.202314-1.021366c-0.183813-0.189188-0.4589-0.22753-0.91411-0.22753h-1.352058v1.912918h-1.254589   v-5.271353h2.892841c0.639021,0,1.113958,0.021019,1.522297,0.255964C24.398676,16.961817,24.635532,17.306799,24.635532,17.896633    M18.711685,21.744732h-4.199253v-5.271353h4.199253v1.101761h-2.939713v0.94595h2.869387v1.083195l-2.869387-0.003698v1.053516   h2.939713V21.744732z M13.576111,21.744732h-1.286665l-0.007398-4.12261l-1.822044,4.12261H9.357132l-1.830685-4.132496v4.132496   H4.969154l-0.481111-1.175951H1.869066l-0.486043,1.175951H0.016169l2.247645-5.271353h1.8714l2.136642,4.993143v-4.993143   h2.055212l1.644406,3.578531l1.512417-3.578531h2.092218V21.744732z M33.886444,19.470737l-0.87093-2.098391l-0.862309,2.098391   H33.886444z M22.989883,18.638563c-0.171482,0.097679-0.376265,0.107565-0.621742,0.107565h-1.528473V17.57514h1.548201   c0.220818,0,0.450277,0.007416,0.599548,0.090265c0.162823,0.080378,0.262758,0.243605,0.262758,0.466173   C23.250175,18.362806,23.152706,18.545826,22.989883,18.638563 M4.034076,19.470737l-0.859841-2.098391l-0.857375,2.098391   H4.034076z"/>
	<path fill="#FFFFFF" d="M24.368935,27.287632c0,1.461594-1.088058,1.76701-2.189688,1.76701H20.61132v1.768238h-2.440098   l-1.550665-1.743502l-1.608643,1.743502h-4.978887v-5.273825h5.057833l1.545733,1.726219l1.598778-1.726219h4.016665   C23.250044,25.549055,24.368935,25.826038,24.368935,27.287632 M14.375378,29.722363h-3.091467v-1.048571h2.759608v-1.0758   h-2.759608v-0.955835h3.15191l1.374251,1.53331L14.375378,29.722363z M19.359196,30.344347l-1.928152-2.149105l1.928152-2.078617   V30.344347z M22.239708,27.981335H20.61132v-1.339178h1.640717c0.453968,0,0.768547,0.181774,0.768547,0.645475   C23.020584,27.743917,22.722042,27.981335,22.239708,27.981335 M30.719606,25.549055h4.199251v1.093102h-2.945887v0.955835   h2.871855v1.0758h-2.871855v1.048571l2.945887,0.004944v1.095573h-4.199251V25.549055z M29.130709,28.370827   c0.278797,0.102642,0.508236,0.288115,0.615568,0.445154c0.177639,0.258434,0.207249,0.497097,0.209713,0.962025v1.044874   h-1.261988v-0.660307c0-0.317795,0.02961-0.786438-0.203556-1.030024c-0.183794-0.192907-0.462608-0.237417-0.920265-0.237417   h-1.347126v1.927748h-1.259521v-5.273825h2.900238c0.639023,0,1.102854,0.025982,1.513659,0.25102   c0.394749,0.236191,0.642712,0.571287,0.642712,1.169762C30.020142,27.809446,29.462549,28.239769,29.130709,28.370827    M28.370785,27.717936c-0.166533,0.096455-0.375004,0.106359-0.618034,0.106359h-1.529696v-1.182138h1.550665   c0.222061,0,0.449036,0.003717,0.597065,0.092735c0.162842,0.086567,0.260309,0.24855,0.260309,0.474834   C28.631094,27.433538,28.533627,27.617785,28.370785,27.717936 M39.716396,28.039448   c0.247963,0.255964,0.376266,0.578701,0.376266,1.11659c0,1.137611-0.708107,1.666842-1.973801,1.666842h-2.449978v-1.131422   h2.441338c0.240566,0,0.405872-0.032152,0.513187-0.131077c0.085121-0.079132,0.148029-0.196606,0.148029-0.342512   c0-0.153339-0.065376-0.278227-0.155426-0.3487c-0.094986-0.084095-0.226994-0.117472-0.446571-0.119944   c-1.1744-0.03834-2.648586,0.035849-2.648586-1.632236c0-0.764174,0.479885-1.567934,1.797386-1.567934h2.521526v1.121536   h-2.304417c-0.231907,0-0.379955,0.009905-0.507011,0.095226c-0.1357,0.086548-0.187504,0.215153-0.187504,0.380852   c0,0.197849,0.117195,0.33387,0.276333,0.391983c0.130764,0.046982,0.271397,0.05934,0.486042,0.061831l0.678493,0.017302   C38.966354,27.636332,39.431427,27.753805,39.716396,28.039448 M44.734776,30.146498   c-0.309647,0.452568-0.903023,0.676382-1.708576,0.676382H40.59721v-1.131422h2.419125   c0.238083,0,0.405857-0.032152,0.508255-0.131077c0.086346-0.079132,0.150497-0.196606,0.150497-0.342512   c0-0.153339-0.064152-0.278227-0.152962-0.3487c-0.095001-0.084095-0.22575-0.117472-0.442879-0.119944   c-1.179337-0.03834-2.652279,0.035849-2.652279-1.632236c0-0.764174,0.484802-1.567934,1.799854-1.567934h2.507954v-1.049816   h-2.329075c-0.704414,0-1.21265,0.168171-1.575344,0.431549v-0.431549h-3.441792c-0.547729,0-1.192924,0.138491-1.502552,0.431549   l0.002464-0.431549h-6.147131v0.431549c-0.489752-0.351171-1.312567-0.431549-1.697472-0.431549h-4.049963v0.431549   c-0.388592-0.374662-1.245968-0.431549-1.771484-0.431549h-4.53849l-1.037479,1.130201l-0.970842-1.130201H8.894392v7.359873   h6.652922l1.068312-1.143799l1.010336,1.143799l4.094385,0.002472v-1.731161h0.407097   c0.540331,0.006187,1.185509-0.01236,1.750498-0.257191v1.98588h3.381369v-1.919106h0.1616   c0.209713,0,0.229441,0.012358,0.229441,0.217623v1.701483h10.271128c0.650127,0,1.332314-0.166945,1.708576-0.469891v0.469891   h3.260445c0.677254,0,1.33849-0.093983,1.844276-0.337587V30.146498z M44.734776,26.670591h-2.295776   c-0.228218,0-0.381195,0.009905-0.505791,0.095226c-0.131989,0.086548-0.185032,0.215153-0.185032,0.380852   c0,0.197849,0.111019,0.33387,0.27755,0.391983c0.129547,0.046982,0.27264,0.05934,0.484821,0.061831l0.678493,0.017302   c0.687119,0.018547,1.147259,0.136021,1.428539,0.421663c0.045628,0.042038,0.081413,0.090265,0.117195,0.133549V26.670591z"/>
</g>
</svg>